<svg width="24" height="24" viewBox="0 0 24 24" fill="none" xmlns="http://www.w3.org/2000/svg">
<path d="M2 12H22M20 12V20C20 20.5304 19.7893 21.0391 19.4142 21.4142C19.0391 21.7893 18.5304 22 18 22H6C5.46957 22 4.96086 21.7893 4.58579 21.4142C4.21071 21.0391 4 20.5304 4 20V12M4 7.99998L20 3.99998M8.86 6.77998L8.41 4.96998C8.34553 4.71521 8.33189 4.45024 8.36988 4.1902C8.40787 3.93016 8.49674 3.68016 8.6314 3.45448C8.76606 3.2288 8.94388 3.03188 9.15469 2.87497C9.3655 2.71805 9.60517 2.60422 9.86 2.53998L11.8 2.05998C12.0554 1.99567 12.3211 1.98244 12.5816 2.02108C12.8422 2.05971 13.0926 2.14943 13.3184 2.28509C13.5441 2.42075 13.7409 2.59968 13.8974 2.8116C14.0538 3.02351 14.1669 3.26425 14.23 3.51998L14.68 5.31998" stroke="#095B59" stroke-width="2" stroke-linecap="round" stroke-linejoin="round"/>
</svg>
