<svg width="70" height="70" viewBox="0 0 70 70" fill="none" xmlns="http://www.w3.org/2000/svg">
<circle cx="35" cy="35" r="35" fill="#EBEBEB"/>
<path d="M20.22 18.2409C19.5285 18.3017 19 18.8789 19 19.5723V50.1739C19 50.8247 19.4633 51.3765 20.1033 51.491L34.0704 53.9789C34.4608 54.0489 34.8605 53.9432 35.1636 53.6875C35.4679 53.4329 35.6422 53.0588 35.6422 52.6632V18.3374C35.6422 17.96 35.487 17.6059 35.2093 17.3514C34.9304 17.0966 34.5635 16.9719 34.1871 17.0053L20.22 18.2409ZM31.9807 37.3288C31.4058 37.3288 30.9394 36.5088 30.9394 35.4996C30.9394 34.4887 31.4058 33.6713 31.9807 33.6713C32.5564 33.6713 33.0228 34.4887 33.0228 35.4996C33.0228 36.5088 32.5563 37.3288 31.9807 37.3288Z" fill="#095B59"/>
<path d="M55.9227 34.7835L45.006 26.6777V30.8828H36.5244V38.6336H45.006V42.8376L55.9227 34.7835Z" fill="#AAD4C8"/>
<path d="M30.9399 35.4998C30.9399 36.509 31.4064 37.3289 31.9813 37.3289C32.5569 37.3289 33.0234 36.509 33.0234 35.4998C33.0234 34.4889 32.5569 33.6714 31.9813 33.6714C31.4064 33.6714 30.9399 34.4889 30.9399 35.4998Z" fill="white"/>
<path d="M44.0556 29.6909V19.2289C44.0556 18.9545 43.9452 18.6857 43.7506 18.4918C43.5579 18.2979 43.2891 18.1862 43.0154 18.1862H36.5244V20.27H41.9728V29.6909H44.0556Z" fill="#095B59"/>
<path d="M36.5244 50.73V52.8138H43.0154C43.2891 52.8138 43.5579 52.703 43.7506 52.508C43.9452 52.3146 44.0556 52.0455 44.0556 51.7713V39.7621H41.9729V50.7299H36.5244V50.73Z" fill="#095B59"/>
</svg>
