<svg width="100" height="97" viewBox="0 0 100 97" fill="none" xmlns="http://www.w3.org/2000/svg">
<path d="M46.9518 18.6626C48.2451 19.7051 49.3012 21.0743 49.5786 22.7344C49.6057 23.5565 49.6009 24.3751 49.5786 25.1973C49.7127 25.2114 49.8469 25.2256 49.9852 25.2402C56.0339 26.0132 61.8156 28.9401 66.4846 32.7754C66.6446 32.9046 66.6446 32.9046 66.8077 33.0363C70.314 35.8774 74.0769 39.7098 75.7625 43.9796C75.9505 44.3641 75.9505 44.3641 76.3465 44.4552C76.4935 44.469 76.6404 44.4828 76.7919 44.4971C76.956 44.5153 77.1202 44.5335 77.2893 44.5523C77.4653 44.5695 77.6413 44.5867 77.8226 44.6044C81.6316 45.0675 84.9166 46.4794 87.7596 49.0683C87.8979 49.1931 88.0363 49.3179 88.1788 49.4465C91.2193 52.3282 93.1774 56.6272 93.3069 60.8085C93.3791 65.8647 92.1194 70.2905 88.5766 74.0192C85.1179 77.4687 81.0476 79.4198 76.1133 79.4613C75.85 79.4607 75.5867 79.4601 75.3234 79.4594C75.0366 79.4607 74.7498 79.4623 74.463 79.4641C73.6825 79.4683 72.902 79.469 72.1215 79.469C71.2768 79.4697 70.4322 79.4736 69.5876 79.4771C67.7455 79.4839 65.9034 79.4866 64.0613 79.4884C62.9108 79.4895 61.7602 79.4916 60.6097 79.4938C57.4221 79.4998 54.2345 79.5049 51.0469 79.5061C50.7416 79.5062 50.7416 79.5062 50.4302 79.5063C50.0176 79.5064 49.6051 79.5066 49.1925 79.5067C48.9877 79.5068 48.783 79.5069 48.572 79.507C48.3669 79.5071 48.1619 79.5071 47.9507 79.5072C44.6214 79.5086 41.2922 79.5171 37.9629 79.5286C34.5424 79.5402 31.1218 79.5463 27.7012 79.5466C25.7816 79.5469 23.862 79.5496 21.9423 79.5585C20.3097 79.566 18.6772 79.5684 17.0446 79.564C16.2115 79.5619 15.3786 79.5622 14.5455 79.5692C13.7833 79.5755 13.0214 79.5748 12.2592 79.5685C11.9831 79.5675 11.7071 79.569 11.4311 79.5734C9.36629 79.6037 9.36629 79.6037 8.75183 79.052C8.50248 78.6626 8.33059 78.2968 8.16829 77.8652C8.06011 77.6684 7.95192 77.4715 7.84046 77.2687C7.69531 76.9863 7.69531 76.9863 7.54723 76.6982C7.43793 76.4866 7.32862 76.275 7.21601 76.057C7.04682 75.7271 7.04682 75.7271 6.87422 75.3905C5.95425 73.594 5.95425 73.594 4.99767 71.8168C4.926 71.687 4.85433 71.5572 4.78049 71.4235C4.59794 71.0956 4.41317 70.769 4.2282 70.4425C3.98045 69.8885 3.90363 69.5588 3.98927 68.9609C4.36918 68.582 4.36918 68.582 4.76837 68.535C4.93499 68.5351 5.10161 68.5352 5.27328 68.5354C5.46527 68.5346 5.65725 68.5339 5.85505 68.5331C6.06755 68.5342 6.28004 68.5353 6.49898 68.5365C6.72348 68.5361 6.94797 68.5358 7.17928 68.5355C7.80435 68.535 8.42938 68.5361 9.05444 68.538C9.72777 68.5397 10.4011 68.5391 11.0744 68.5388C12.2416 68.5386 13.4089 68.5398 14.5761 68.542C16.2637 68.545 17.9513 68.546 19.6389 68.5465C22.3768 68.5473 25.1146 68.5499 27.8524 68.5534C30.5125 68.5569 33.1725 68.5596 35.8326 68.5612C36.0784 68.5614 36.0784 68.5614 36.3292 68.5615C37.1513 68.562 37.9734 68.5625 38.7955 68.563C45.6191 68.5669 52.4427 68.5736 59.2663 68.582C59.2278 68.4419 59.1892 68.3018 59.1496 68.1574C59.0987 67.972 59.0478 67.7866 58.9955 67.5955C58.9452 67.4124 58.8949 67.2293 58.8431 67.0406C58.4738 65.6745 58.2934 64.4386 58.3069 63.025C58.3076 62.8849 58.3083 62.7449 58.309 62.6006C58.3108 62.2578 58.3135 61.915 58.3165 61.5723C58.2074 61.5725 58.0983 61.5727 57.9859 61.5729C51.5236 61.5856 45.0613 61.5954 38.5991 61.6013C37.8237 61.602 37.0483 61.6027 36.2729 61.6035C36.0414 61.6037 36.0414 61.6037 35.8051 61.6039C33.3034 61.6064 30.8016 61.6109 28.2998 61.6161C25.7341 61.6214 23.1684 61.6246 20.6026 61.6257C19.0185 61.6265 17.4345 61.629 15.8504 61.6336C14.7652 61.6366 13.6799 61.6375 12.5947 61.6368C11.9679 61.6364 11.3412 61.6373 10.7144 61.64C10.0358 61.6428 9.35729 61.6422 8.67869 61.6406C8.47931 61.6423 8.27994 61.6439 8.07452 61.6456C7.8934 61.6445 7.71229 61.6434 7.52568 61.6422C7.36895 61.6424 7.21221 61.6426 7.05072 61.6428C6.54346 61.5538 6.37572 61.4202 6.07878 61.0039C5.53485 52.7451 9.55604 43.6859 14.8627 37.5487C17.6851 34.3706 20.7858 31.6477 24.5045 29.5547C24.63 29.4823 24.7556 29.4099 24.8849 29.3353C28.2328 27.4172 32.7058 25.1973 36.6616 25.1973C36.6528 25.0278 36.644 24.8583 36.6349 24.6837C36.5721 22.5868 36.8523 21.2595 38.2169 19.6439C40.4912 17.2633 44.1949 16.7537 46.9518 18.6626Z" fill="#F1DC60"/>
<path d="M86.881 48.3105C90.3725 51.2399 92.7833 55.2943 93.2683 59.8672C93.5364 65.0222 92.4558 69.622 89.0062 73.567C85.7398 77.0047 81.6927 79.3163 76.8574 79.455C76.3459 79.4593 75.8349 79.4607 75.3234 79.4594C75.0366 79.4607 74.7498 79.4623 74.463 79.4641C73.6825 79.4683 72.902 79.469 72.1215 79.469C71.2768 79.4697 70.4322 79.4736 69.5876 79.4771C67.7455 79.4839 65.9034 79.4866 64.0613 79.4884C62.9108 79.4895 61.7602 79.4916 60.6097 79.4938C57.4221 79.4998 54.2345 79.5049 51.0469 79.5061C50.7416 79.5062 50.7416 79.5062 50.4302 79.5063C50.0176 79.5064 49.6051 79.5066 49.1925 79.5067C48.9877 79.5068 48.783 79.5069 48.572 79.507C48.3669 79.5071 48.1619 79.5071 47.9507 79.5072C44.6214 79.5086 41.2922 79.5171 37.9629 79.5286C34.5424 79.5402 31.1218 79.5463 27.7012 79.5466C25.7816 79.5469 23.862 79.5496 21.9423 79.5585C20.3097 79.566 18.6772 79.5684 17.0446 79.564C16.2115 79.5619 15.3786 79.5622 14.5455 79.5692C13.7833 79.5755 13.0214 79.5748 12.2592 79.5685C11.9831 79.5675 11.7071 79.569 11.4311 79.5734C9.36629 79.6037 9.36628 79.6037 8.75183 79.052C8.50247 78.6626 8.33059 78.2968 8.16829 77.8652C8.06011 77.6684 7.95192 77.4715 7.84046 77.2687C7.74369 77.0804 7.64693 76.8921 7.54723 76.6982C7.43792 76.4866 7.32862 76.275 7.21601 76.057C7.10322 75.8371 6.99043 75.6171 6.87422 75.3905C5.95425 73.594 5.95425 73.594 4.99767 71.8168C4.926 71.687 4.85433 71.5572 4.78049 71.4235C4.59794 71.0956 4.41317 70.769 4.2282 70.4425C3.98045 69.8885 3.90363 69.5589 3.98927 68.9609C4.36918 68.582 4.36918 68.582 4.76837 68.535C4.93499 68.5351 5.10161 68.5352 5.27328 68.5354C5.46527 68.5346 5.65725 68.5339 5.85505 68.5331C6.06755 68.5342 6.28004 68.5353 6.49898 68.5365C6.72348 68.5361 6.94798 68.5358 7.17928 68.5355C7.80435 68.535 8.42938 68.5361 9.05445 68.538C9.72777 68.5397 10.4011 68.5391 11.0744 68.5388C12.2416 68.5386 13.4089 68.5398 14.5761 68.542C16.2637 68.545 17.9513 68.546 19.6389 68.5465C22.3767 68.5473 25.1146 68.5499 27.8524 68.5534C30.5125 68.5569 33.1725 68.5596 35.8326 68.5612C36.0784 68.5614 36.0784 68.5614 36.3292 68.5615C37.1513 68.562 37.9734 68.5625 38.7955 68.563C45.6191 68.5669 52.4427 68.5736 59.2663 68.582C59.2277 68.4424 59.1891 68.3027 59.1494 68.1588C59.0731 67.8812 59.0731 67.8812 58.9952 67.5981C58.9448 67.4154 58.8945 67.2328 58.8427 67.0446C57.6858 62.721 57.9867 57.8087 60.208 53.8603C61.1242 52.2974 62.1799 50.9387 63.4453 49.6367C63.5985 49.4631 63.5985 49.4631 63.7547 49.2859C69.658 42.8228 80.362 43.2425 86.881 48.3105Z" fill="#F9685A"/>
<path d="M5.27063 68.5322C5.46203 68.5308 5.65342 68.5293 5.85062 68.5278C6.06247 68.5281 6.27432 68.5285 6.49258 68.5288C6.71641 68.5277 6.94024 68.5266 7.17086 68.5254C7.79408 68.5227 8.41729 68.5217 9.04052 68.5214C9.71193 68.5207 10.3833 68.5178 11.0547 68.5153C12.5237 68.5101 13.9927 68.5078 15.4617 68.5062C16.3786 68.5051 17.2955 68.5035 18.2123 68.5018C20.7496 68.4972 23.2869 68.4933 25.8243 68.492C25.9867 68.4919 26.1492 68.4918 26.3166 68.4918C26.4795 68.4917 26.6423 68.4916 26.8101 68.4915C27.1402 68.4913 27.4702 68.4912 27.8002 68.491C28.0458 68.4909 28.0458 68.4909 28.2963 68.4907C30.9495 68.4893 33.6027 68.4826 36.2559 68.4738C38.9783 68.4648 41.7008 68.4601 44.4232 68.4597C45.9524 68.4593 47.4816 68.4571 49.0108 68.4503C50.3128 68.4444 51.6149 68.4425 52.9169 68.4456C53.5815 68.4471 54.2459 68.4467 54.9105 68.4414C55.6306 68.4366 56.3504 68.4388 57.0705 68.4428C57.2811 68.4397 57.4917 68.4367 57.7086 68.4335C59.0867 68.4514 59.0867 68.4514 59.5997 68.8246C59.8564 69.1239 59.8564 69.1239 60.2161 69.7187C60.3902 69.9975 60.3902 69.9975 60.5678 70.2819C60.6789 70.4751 60.7901 70.6683 60.9046 70.8673C63.4174 75.0454 67.0479 77.4256 71.6668 78.8295C72.4139 79.0119 73.1287 79.1113 73.8928 79.1914C73.8928 79.2539 73.8928 79.3164 73.8928 79.3809C65.6571 79.4155 57.4214 79.4422 49.1856 79.4583C48.2138 79.4601 47.242 79.4621 46.2702 79.4641C46.0768 79.4645 45.8833 79.4649 45.684 79.4653C42.5492 79.4719 39.4145 79.4839 36.2798 79.4978C33.0645 79.512 29.8493 79.5204 26.634 79.5235C24.6491 79.5255 22.6644 79.5321 20.6795 79.5444C19.3194 79.5524 17.9593 79.5549 16.5992 79.5529C15.8138 79.5519 15.0286 79.5534 14.2433 79.5615C13.5245 79.5689 12.8061 79.5693 12.0874 79.5641C11.7036 79.5631 11.3198 79.5697 10.936 79.5765C9.30725 79.5549 9.30725 79.5549 8.76083 79.0522C8.51214 78.6635 8.33536 78.2942 8.16829 77.8652C8.06011 77.6684 7.95192 77.4715 7.84046 77.2687C7.74369 77.0804 7.64693 76.8922 7.54723 76.6982C7.43792 76.4866 7.32862 76.275 7.21601 76.057C7.10322 75.8371 6.99043 75.6171 6.87422 75.3905C5.95425 73.594 5.95425 73.594 4.99767 71.8168C4.926 71.687 4.85433 71.5572 4.78049 71.4235C4.59794 71.0956 4.41317 70.769 4.2282 70.4425C3.98045 69.8885 3.90363 69.5589 3.98927 68.9609C4.46502 68.4864 4.61333 68.5341 5.27063 68.5322Z" fill="#FC7700"/>
<path d="M46.9519 18.6626C48.2451 19.7051 49.3012 21.0743 49.5786 22.7344C49.5786 23.5471 49.5786 24.3599 49.5786 25.1973C45.316 25.1973 41.0534 25.1973 36.6616 25.1973C36.6616 22.3714 36.8015 21.1255 38.6665 19.1732C40.9206 17.1478 44.4591 16.9366 46.9519 18.6626Z" fill="#D1AD90"/>
<path d="M26.9735 34.291C27.2287 34.7795 27.4816 35.269 27.7333 35.7593C27.842 35.9666 27.842 35.9666 27.953 36.1781C28.0215 36.3125 28.0901 36.4468 28.1607 36.5852C28.2562 36.7697 28.2562 36.7697 28.3537 36.958C28.4931 37.3223 28.4931 37.3223 28.4931 38.0801C28.088 38.3643 28.088 38.3643 27.5196 38.6484C23.981 40.6087 21.237 43.8827 20.075 47.7829C19.8865 48.4597 19.7202 49.1409 19.5652 49.8262C18.1357 49.7053 16.7784 49.4096 15.3862 49.0684C16.1385 44.2071 19.0418 39.4673 22.9671 36.4778C26.0304 34.291 26.0304 34.291 26.9735 34.291Z" fill="#D3B937"/>
<path d="M81 57L71 67M71 57L81 67" stroke="white" stroke-width="2.2" stroke-linecap="round" stroke-linejoin="round"/>
<path d="M76 78C84.8366 78 92 70.8366 92 62C92 53.1634 84.8366 46 76 46C67.1634 46 60 53.1634 60 62C60 70.8366 67.1634 78 76 78Z" stroke="#373737" stroke-width="3" stroke-linecap="round" stroke-linejoin="round"/>
<path d="M96 82L88 74" stroke="#373737" stroke-width="3" stroke-linecap="round" stroke-linejoin="round"/>
</svg>
