<svg width="15" height="15" viewBox="0 0 15 15" fill="none" xmlns="http://www.w3.org/2000/svg">
<path d="M4.0625 11.7031L4.6875 10.1562C4.78125 9.91667 4.93229 9.72646 5.14063 9.58562C5.34896 9.44479 5.58333 9.37458 5.84375 9.375H6.875V6.85938C5.28125 6.80729 3.94521 6.57292 2.86688 6.15625C1.78854 5.73958 1.24958 5.25 1.25 4.6875C1.25 4.08333 1.85938 3.56771 3.07813 3.14063C4.29688 2.71354 5.77083 2.5 7.5 2.5C9.23958 2.5 10.7162 2.71354 11.93 3.14063C13.1437 3.56771 13.7504 4.08333 13.75 4.6875C13.75 5.25 13.2108 5.73958 12.1325 6.15625C11.0542 6.57292 9.71833 6.80729 8.125 6.85938V9.375H9.15625C9.40625 9.375 9.63812 9.44542 9.85187 9.58625C10.0656 9.72708 10.2192 9.91708 10.3125 10.1562L10.9375 11.7031C11.0208 11.8906 11.0025 12.0704 10.8825 12.2425C10.7625 12.4146 10.5985 12.5004 10.3906 12.5C10.276 12.5 10.1719 12.4688 10.0781 12.4062C9.98438 12.3438 9.91146 12.2552 9.85938 12.1406L9.25 10.625H5.75L5.14063 12.1406C5.08854 12.2552 5.01563 12.3438 4.92188 12.4062C4.82813 12.4688 4.72396 12.5 4.60938 12.5C4.40104 12.5 4.23708 12.414 4.1175 12.2419C3.99792 12.0698 3.97958 11.8902 4.0625 11.7031Z" fill="#095B59"/>
</svg>
