<svg width="412" height="917" viewBox="0 0 412 917" fill="none" xmlns="http://www.w3.org/2000/svg">
<g clip-path="url(#clip0_2321_10016)">
<rect width="412" height="917" fill="#EDEDED"/>
<g filter="url(#filter0_d_2321_10016)">
<path d="M0 0H412V73C412 81.2843 405.284 88 397 88H15C6.71573 88 0 81.2843 0 73V0Z" fill="white"/>
</g>
<path d="M39.1669 55.2917V57.7084H24.6669L31.3127 64.3542L29.5969 66.0701L20.0269 56.5001L29.5969 46.9301L31.3127 48.6459L24.6669 55.2917H39.1669Z" fill="#D1D1D1"/>
<rect x="20" y="106" width="48" height="48" rx="24" fill="#D6D6D6"/>
<line x1="9" y1="165.6" x2="403" y2="165.6" stroke="#B3B3B3" stroke-width="0.8"/>
<rect x="9" y="179" width="394" height="384" rx="10" fill="white"/>
<line x1="16" y1="468.6" x2="396" y2="468.6" stroke="#B3B3B3" stroke-width="0.8"/>
<path d="M18 238C18 231.373 23.3726 226 30 226H381C387.627 226 393 231.373 393 238V295C393 301.627 387.627 307 381 307H30C23.3726 307 18 301.627 18 295V238Z" fill="#F7F7F7"/>
<rect x="31" y="240" width="66" height="56" rx="8" fill="#D9D9D9"/>
<rect x="110" y="239" width="169" height="16" rx="3" fill="#D9D9D9"/>
<rect x="110" y="260" width="93" height="12" rx="2" fill="#D9D9D9"/>
<rect x="111" y="280" width="36" height="12" rx="2" fill="#D9D9D9"/>
<rect x="20" y="192" width="104" height="17" rx="3" fill="#D9D9D9"/>
<path d="M18 330C18 323.373 23.3726 318 30 318H381C387.627 318 393 323.373 393 330V387C393 393.627 387.627 399 381 399H30C23.3726 399 18 393.627 18 387V330Z" fill="#F7F7F7"/>
<rect x="31" y="332" width="66" height="56" rx="8" fill="#D9D9D9"/>
<path d="M114 374.5H119L118.5 375.5H116.87C117.11 375.79 117.29 376.13 117.395 376.5H119L118.5 377.5H117.5C117.438 378.123 117.167 378.707 116.731 379.158C116.296 379.608 115.721 379.897 115.1 379.98V380H114.75L117.75 383.5H116.5L113.5 380V379H114.75C115.63 379 116.36 378.35 116.48 377.5H113.5L114 376.5H116.33C116.05 375.91 115.45 375.5 114.75 375.5H113.5L114 374.5Z" fill="#111827"/>
<path d="M123.63 375.25V373.794H126.542V384H124.932V375.25H123.63ZM128.707 376.314C128.763 375.446 129.094 374.769 129.701 374.284C130.317 373.799 131.101 373.556 132.053 373.556C132.706 373.556 133.271 373.673 133.747 373.906C134.223 374.139 134.582 374.457 134.825 374.858C135.067 375.259 135.189 375.712 135.189 376.216C135.189 376.795 135.035 377.289 134.727 377.7C134.419 378.111 134.05 378.386 133.621 378.526V378.582C134.171 378.75 134.601 379.058 134.909 379.506C135.217 379.945 135.371 380.509 135.371 381.2C135.371 381.751 135.245 382.241 134.993 382.67C134.741 383.099 134.367 383.44 133.873 383.692C133.378 383.935 132.785 384.056 132.095 384.056C131.087 384.056 130.256 383.799 129.603 383.286C128.959 382.763 128.613 382.017 128.567 381.046H130.107C130.144 381.541 130.335 381.947 130.681 382.264C131.026 382.572 131.493 382.726 132.081 382.726C132.65 382.726 133.089 382.572 133.397 382.264C133.705 381.947 133.859 381.541 133.859 381.046C133.859 380.393 133.649 379.931 133.229 379.66C132.818 379.38 132.183 379.24 131.325 379.24H130.961V377.924H131.339C132.095 377.915 132.669 377.789 133.061 377.546C133.462 377.303 133.663 376.921 133.663 376.398C133.663 375.95 133.518 375.595 133.229 375.334C132.939 375.063 132.529 374.928 131.997 374.928C131.474 374.928 131.068 375.063 130.779 375.334C130.489 375.595 130.317 375.922 130.261 376.314H128.707ZM137.047 378.764C137.047 377.149 137.318 375.889 137.859 374.984C138.41 374.069 139.352 373.612 140.687 373.612C142.022 373.612 142.96 374.069 143.501 374.984C144.052 375.889 144.327 377.149 144.327 378.764C144.327 380.397 144.052 381.676 143.501 382.6C142.96 383.515 142.022 383.972 140.687 383.972C139.352 383.972 138.41 383.515 137.859 382.6C137.318 381.676 137.047 380.397 137.047 378.764ZM142.759 378.764C142.759 378.008 142.708 377.369 142.605 376.846C142.512 376.323 142.316 375.899 142.017 375.572C141.718 375.236 141.275 375.068 140.687 375.068C140.099 375.068 139.656 375.236 139.357 375.572C139.058 375.899 138.858 376.323 138.755 376.846C138.662 377.369 138.615 378.008 138.615 378.764C138.615 379.548 138.662 380.206 138.755 380.738C138.848 381.27 139.044 381.699 139.343 382.026C139.651 382.353 140.099 382.516 140.687 382.516C141.275 382.516 141.718 382.353 142.017 382.026C142.325 381.699 142.526 381.27 142.619 380.738C142.712 380.206 142.759 379.548 142.759 378.764Z" fill="#111827"/>
<rect x="110" y="331" width="169" height="16" rx="3" fill="#D9D9D9"/>
<rect x="110" y="352" width="93" height="12" rx="2" fill="#D9D9D9"/>
<rect x="111" y="372" width="36" height="12" rx="2" fill="#D9D9D9"/>
<rect x="323" y="335" width="61" height="21" rx="5" fill="#D9D9D9"/>
<rect x="18" y="413" width="375" height="40" rx="10" fill="#F2F2F2"/>
<g filter="url(#filter1_d_2321_10016)">
<path d="M0 627C0 613.193 11.1929 602 25 602H387C400.807 602 412 613.193 412 627V917H0V627Z" fill="white"/>
</g>
<rect x="20" y="501" width="372" height="38" rx="7" fill="#E6E6E6"/>
<rect x="9" y="757" width="390" height="34" rx="6" fill="#F0F0F0"/>
<rect x="11" y="831" width="390" height="47" rx="9" fill="#D9D9D9"/>
<rect x="21" y="838" width="48" height="33" rx="9" fill="#F2F2F2"/>
<path d="M385.707 853.707C386.098 853.317 386.098 852.683 385.707 852.293L379.343 845.929C378.953 845.538 378.319 845.538 377.929 845.929C377.538 846.319 377.538 846.953 377.929 847.343L383.586 853L377.929 858.657C377.538 859.047 377.538 859.681 377.929 860.071C378.319 860.462 378.953 860.462 379.343 860.071L385.707 853.707ZM353 853V854H385V853V852H353V853Z" fill="#BABABA"/>
<rect x="49" y="45" width="85" height="24" rx="3" fill="#E6E6E6"/>
<rect x="75" y="106" width="107" height="18" rx="3" fill="#D4D4D4"/>
<rect x="75" y="133" width="169" height="18" rx="3" fill="#D4D4D4"/>
<rect x="20" y="480" width="114" height="15" rx="3" fill="#E6E6E6"/>
<rect x="323" y="244" width="61" height="21" rx="5" fill="#D9D9D9"/>
<rect x="18" y="624" width="131" height="19" rx="3" fill="#DEDEDE"/>
<rect x="18" y="662" width="87" height="19" rx="3" fill="#DEDEDE"/>
<rect x="338" y="662" width="48" height="19" rx="3" fill="#DEDEDE"/>
<rect x="352" y="691" width="34" height="19" rx="3" fill="#E6E6E6"/>
<rect x="352" y="719" width="34" height="19" rx="3" fill="#E6E6E6"/>
<rect x="18" y="695" width="68" height="16" rx="3" fill="#E6E6E6"/>
<rect x="18" y="723" width="68" height="16" rx="3" fill="#E6E6E6"/>
</g>
<defs>
<filter id="filter0_d_2321_10016" x="-4" y="-4" width="420" height="96" filterUnits="userSpaceOnUse" color-interpolation-filters="sRGB">
<feFlood flood-opacity="0" result="BackgroundImageFix"/>
<feColorMatrix in="SourceAlpha" type="matrix" values="0 0 0 0 0 0 0 0 0 0 0 0 0 0 0 0 0 0 127 0" result="hardAlpha"/>
<feOffset/>
<feGaussianBlur stdDeviation="2"/>
<feComposite in2="hardAlpha" operator="out"/>
<feColorMatrix type="matrix" values="0 0 0 0 0 0 0 0 0 0 0 0 0 0 0 0 0 0 0.25 0"/>
<feBlend mode="normal" in2="BackgroundImageFix" result="effect1_dropShadow_2321_10016"/>
<feBlend mode="normal" in="SourceGraphic" in2="effect1_dropShadow_2321_10016" result="shape"/>
</filter>
<filter id="filter1_d_2321_10016" x="-4" y="597" width="420" height="323" filterUnits="userSpaceOnUse" color-interpolation-filters="sRGB">
<feFlood flood-opacity="0" result="BackgroundImageFix"/>
<feColorMatrix in="SourceAlpha" type="matrix" values="0 0 0 0 0 0 0 0 0 0 0 0 0 0 0 0 0 0 127 0" result="hardAlpha"/>
<feOffset dy="-1"/>
<feGaussianBlur stdDeviation="2"/>
<feComposite in2="hardAlpha" operator="out"/>
<feColorMatrix type="matrix" values="0 0 0 0 0 0 0 0 0 0 0 0 0 0 0 0 0 0 0.25 0"/>
<feBlend mode="normal" in2="BackgroundImageFix" result="effect1_dropShadow_2321_10016"/>
<feBlend mode="normal" in="SourceGraphic" in2="effect1_dropShadow_2321_10016" result="shape"/>
</filter>
<clipPath id="clip0_2321_10016">
<rect width="412" height="917" fill="white"/>
</clipPath>
</defs>
</svg>
